<svg width="192" height="196" viewBox="0 0 192 196" fill="none" xmlns="http://www.w3.org/2000/svg">
<path d="M66.409 107.684C60.7715 110.266 54.9237 118.647 54.9237 118.647C54.9237 118.647 51.7023 124.774 48.137 127C43.9291 129.627 40.3166 130.647 35.6076 129.088C30.8157 127.501 28.8208 124.39 26.7326 119.691C24.6444 114.993 24.2108 103.153 26.7326 93.066C29.2544 82.9788 32.2899 77.2872 39.262 69.5734C39.4434 67.5022 39.6769 66.3345 40.3061 64.3528C43.0994 55.5547 49.3822 52.4999 57.534 48.169C65.658 43.8529 80.5046 42.9484 80.5046 42.9484C80.5046 42.9484 83.9898 39.6134 86.6029 38.0147C96.2337 32.1226 115.483 36.6837 115.483 36.6837C115.483 36.6837 135.487 41.629 135.843 42.9484C136.199 44.2678 128.929 50.2009 128.534 56.5219C128.012 64.8749 131.833 70.8643 132.189 71.6616C132.544 72.459 128.143 81.8667 131.016 89.532C131.932 91.976 133.445 94.1618 135.843 95.6763C145.762 101.941 153.426 100.128 154.637 100.375C155.847 100.622 158.307 104.493 158.291 107.684C158.283 109.365 157.247 111.86 157.247 111.86C157.247 111.86 158.288 117.565 158.291 121.257C158.3 130.359 156.563 135.815 152.027 143.706C147.856 150.959 139.664 158.048 137.409 159.368C135.154 160.687 130.254 162.88 125.924 161.456C120.963 159.825 118.259 154.394 117.571 151.015C116.882 147.635 118.078 142.4 117.571 136.919C117.132 132.18 117.56 129.194 115.483 124.912C113.465 120.753 107.652 116.037 107.652 116.037C107.652 116.037 104.091 116.553 101.909 116.037C98.2188 115.163 96.2853 114.301 92.8676 112.658C88.9014 110.75 86.6526 109.905 82.5929 108.206C82.0666 107.985 81.5118 107.647 80.9979 107.287C79.8696 106.495 78.9384 105.595 78.9384 105.595C78.9384 105.595 70.9191 105.618 66.409 107.684Z" fill="#DE832B"/>
<path d="M66.409 107.684C60.7715 110.266 54.9237 118.647 54.9237 118.647C54.9237 118.647 51.7023 124.774 48.137 127C43.9291 129.627 40.3166 130.647 35.6076 129.088C30.8157 127.501 28.8208 124.39 26.7326 119.691C24.6444 114.993 24.2108 103.153 26.7326 93.066C29.2544 82.9788 32.2899 77.2872 39.262 69.5734M66.409 107.684C70.9191 105.618 78.9384 105.595 78.9384 105.595C78.9384 105.595 79.8696 106.495 80.9979 107.287M66.409 107.684C66.409 107.684 51.257 96.4548 45.5267 86.2793C42.1078 80.2081 40.6618 76.6355 39.262 69.5734M39.262 69.5734C39.4434 67.5022 39.6769 66.3345 40.3061 64.3528C43.0994 55.5547 49.3822 52.4999 57.534 48.169C65.658 43.8529 80.5046 42.9484 80.5046 42.9484M80.5046 42.9484C80.5046 42.9484 83.9898 39.6134 86.6029 38.0147C96.2337 32.1226 115.483 36.6837 115.483 36.6837C115.483 36.6837 135.487 41.629 135.843 42.9484C136.199 44.2678 128.929 50.2009 128.534 56.5219C128.012 64.8749 131.833 70.8643 132.189 71.6616C132.544 72.4589 128.143 81.8667 131.016 89.532M80.5046 42.9484C80.5046 42.9484 73.5257 56.3834 71.9853 65.6837C69.2462 82.2215 80.9979 107.287 80.9979 107.287M157.247 111.86C157.247 111.86 158.283 109.365 158.291 107.684C158.307 104.493 155.847 100.622 154.637 100.375C153.426 100.128 145.762 101.941 135.843 95.6763C133.445 94.1618 131.932 91.976 131.016 89.532M157.247 111.86C157.247 111.86 158.288 117.565 158.291 121.257C158.3 130.359 156.563 135.815 152.027 143.706C147.856 150.959 139.664 158.048 137.409 159.368C135.154 160.687 130.254 162.88 125.924 161.456C120.963 159.825 118.259 154.394 117.571 151.015C116.882 147.635 118.078 142.4 117.571 136.919C117.132 132.18 117.56 129.194 115.483 124.912M157.247 111.86C157.247 111.86 143.256 122.257 132.711 124.39C126.113 125.724 115.483 124.912 115.483 124.912M115.483 124.912C113.465 120.753 107.652 116.037 107.652 116.037M107.652 116.037C107.652 116.037 104.091 116.553 101.909 116.037C98.2188 115.163 96.2853 114.301 92.8676 112.658C88.9014 110.75 86.6526 109.905 82.5929 108.206C82.0666 107.985 81.5118 107.647 80.9979 107.287M107.652 116.037C107.652 116.037 114.065 112.722 117.571 109.772C124.832 103.663 131.016 89.532 131.016 89.532" stroke="black" stroke-width="4"/>
<circle cx="151.338" cy="51.0546" r="4.17647" fill="black"/>
<circle cx="148.728" cy="69.3267" r="4.69853" fill="black"/>
<circle cx="163.868" cy="67.7605" r="3.13235" fill="black"/>
<circle cx="156.037" cy="87.0766" r="2.61029" fill="black"/>
</svg>
